#!OML:ASF F:\VICON\USERDATA\INSTALL\Justin_Nancy\Justin_Nancy.ASF
:FULLY-SPECIFIED
:DEGREES
127
root -3.28593 16.3316 0.243025 -21.3373 79.997 -38.9714
lowerback 16.458 2.8529 -5.67534
upperback 1.19956 2.91584 1.49184
thorax -8.31546 1.67057 4.1434
lowerneck -23.9847 -3.73739 -6.17283
upperneck 9.50265 -4.05662 6.59488
head 7.02438 -1.53516 2.6586
rclavicle -1.5704e-014 -1.86858e-014
rhumerus -48.6728 10.1333 -87.4884
rradius 109.517
rwrist -12.1697
rhand -13.2286 29.9486
rfingers 7.12502
rthumb 12.8728 0.365581
lclavicle -1.5704e-014 -1.86858e-014
lhumerus -33.4358 -22.2092 101.875
lradius 107.488
lwrist 8.4693
lhand -21.36 5.85203
lfingers 7.12502
lthumb 5.02677 35.7724
rfemur -20.4518 -11.3509 13.548
rtibia 73.3404
rfoot 0.990156 -6.12575
rtoes -7.98262
lfemur -33.8153 9.05491 -33.7857
ltibia 56.1297
lfoot -20.392 -3.93887
ltoes 9.55117
128
root -3.04351 16.3325 0.322769 -22.771 80.4876 -40.4864
lowerback 16.4098 2.60189 -5.69428
upperback 1.11743 2.59973 1.69944
thorax -8.35175 1.52678 4.45784
lowerneck -23.8238 -3.51034 -5.95216
upperneck 9.56863 -3.76463 6.14691
head 6.98593 -1.43402 2.51263
rclavicle 2.56432e-014 7.95139e-015
rhumerus -49.6393 9.70913 -87.5089
rradius 110.503
rwrist -12.6713
rhand -13.1018 29.4554
rfingers 7.12502
rthumb 12.995 -0.119825
lclavicle 2.56432e-014 7.95139e-015
lhumerus -32.9481 -23.055 102.26
lradius 108.809
lwrist 9.14717
lhand -21.6536 5.86023
lfingers 7.12502
lthumb 4.74322 35.7871
rfemur -23.4383 -12.2781 13.1996
rtibia 75.6499
rfoot -0.824048 -4.61692
rtoes -8.29167
lfemur -32.2452 9.49334 -33.3805
ltibia 54.9482
lfoot -20.7947 -5.03403
ltoes 10.8099
129
root -2.79355 16.3553 0.364572 -21.2618 80.8552 -39.3878
lowerback 16.052 2.32588 -5.75307
upperback 0.937297 2.24274 1.76939
thorax -8.30989 1.36027 4.65983
lowerneck -23.7165 -3.20652 -5.81954
upperneck 9.63947 -3.35328 5.79584
head 6.95642 -1.26833 2.42822
rclavicle 6.16232e-015 -7.95139e-016
rhumerus -50.5095 9.776 -87.4775
rradius 111.521
rwrist -13.5159
rhand -12.4231 29.2021
rfingers 7.12502
rthumb 13.6493 -0.330333
lclavicle 6.16232e-015 -7.95139e-016
lhumerus -32.4932 -23.5931 102.428
lradius 110.41
lwrist 10.5711
lhand -22.4811 5.80753
lfingers 7.12502
lthumb 3.94419 35.7508
rfemur -26.8429 -11.4867 12.8773
rtibia 77.5048
rfoot -2.33198 -3.97208
rtoes -9.94101
lfemur -30.9388 9.73318 -33.4878
ltibia 53.6628
lfoot -21.0092 -5.79946
ltoes 11.6156
130
root -2.5403 16.3693 0.415194 -18.7504 81.3926 -36.9241
lowerback 16.0031 2.06407 -5.95233
upperback 0.876405 1.85848 1.743
thorax -8.30542 1.18311 4.83714
lowerneck -23.689 -3.02154 -6.07382
upperneck 9.78143 -3.05692 5.93392
head 6.98776 -1.12458 2.55393
rclavicle -6.16232e-015 -1.90833e-014
rhumerus -51.2204 9.84792 -87.3489
rradius 112.558
rwrist -14.5657
rhand -11.5607 29.3863
rfingers 7.12502
rthumb 14.4803 -0.0884652
lclavicle -6.16232e-015 -1.90833e-014
lhumerus -32.115 -24.1217 102.465
lradius 111.979
lwrist 12.0842
lhand -23.2237 5.54571
lfingers 7.12502
lthumb 3.22705 35.501
rfemur -29.8784 -11.128 12.1517
rtibia 79.1784
rfoot -3.91942 -3.06506
rtoes -10.5907
lfemur -29.1233 9.52861 -33.7896
ltibia 52.1846
lfoot -21.0709 -5.77226
ltoes 9.29225
131
root -2.27646 16.3828 0.470504 -15.7643 82.3012 -33.8296
lowerback 16.0373 1.67413 -6.37854
upperback 0.854668 1.26522 1.76575
thorax -8.28013 0.914212 5.24641
lowerneck -23.8437 -2.94598 -6.55443
upperneck 10.12 -2.87347 6.31269
head 7.12674 -1.01847 2.78356
rclavicle 1.09332e-014 1.90833e-014
rhumerus -51.7617 10.1444 -87.1726
rradius 113.501
rwrist -15.3139
rhand -11.0424 29.646
rfingers 7.12502
rthumb 14.9796 0.207816
lclavicle 1.09332e-014 1.90833e-014
lhumerus -31.9159 -24.4264 102.578
lradius 113.492
lwrist 13.4965
lhand -22.9351 5.71047
lfingers 7.12502
lthumb 3.5058 35.6614
rfemur -32.5887 -11.3262 11.2393
rtibia 80.5323
rfoot -5.48355 -1.92109
rtoes -10.8071
lfemur -26.9986 9.14804 -34.2156
ltibia 50.5309
lfoot -20.8655 -5.96128
ltoes 7.34636
